# xmcd
#
# Track frame offsets:
# 150
# 134220
# 145232
#
# Disc length: 2080 seconds
#
# Revision: 0
# Processed by: cddbd v1.4PL0 Copyright (c) Steve Scherf et al.
# Submitted via: Audion 3.0.2 (http://www.panic.com/audion/)
#
DISCID=2e081e03
DTITLE=Sound Portraits - The Jewish Giant
DYEAR=1900
DGENRE=
TTITLE0=The Jewish Giant
TTITLE1=The Good Monster 
TTITLE2=The Happy Giant
EXTD=
EXTT0=
EXTT1=
EXTT2=
PLAYORDER=
